{
    "asset" : {
        "generator" : "Khronos glTF Blender I/O v0.9.36",
        "version" : "2.0"
    },
    "scene" : 0,
    "scenes" : [
        {
            "name" : "Scene",
            "nodes" : [
                0,
                1
            ]
        }
    ],
    "nodes" : [
        {
            "mesh" : 0,
            "name" : "Cube",
            "scale" : [
                1.5,
                0.05000000074505806,
                3
            ],
            "translation" : [
                1.5,
                3,
                0
            ]
        },
        {
            "mesh" : 1,
            "name" : "Plane.003",
            "rotation" : [
                0,
                0.7106236815452576,
                0,
                0.7035723328590393
            ],
            "scale" : [
                0.3904837667942047,
                1,
                0.6185542345046997
            ],
            "translation" : [
                1.6766337156295776,
                3.051607608795166,
                2.0036349296569824
            ]
        }
    ],
    "materials" : [
        {
            "doubleSided" : true,
            "name" : "asd123",
            "normalTexture" : {
                "index" : 0,
                "scale" : 0.20000000298023224,
                "texCoord" : 0
            },
            "pbrMetallicRoughness" : {
                "baseColorTexture" : {
                    "index" : 1,
                    "texCoord" : 0
                },
                "metallicFactor" : 0.33181819319725037,
                "metallicRoughnessTexture" : {
                    "index" : 2,
                    "texCoord" : 0
                }
            }
        },
        {
            "doubleSided" : true,
            "name" : "Material.004",
            "pbrMetallicRoughness" : {
                "baseColorTexture" : {
                    "index" : 3,
                    "texCoord" : 0
                },
                "metallicFactor" : 0,
                "roughnessFactor" : 0
            }
        },
        {
            "doubleSided" : true,
            "name" : "Material.001",
            "pbrMetallicRoughness" : {
                "baseColorTexture" : {
                    "index" : 4,
                    "texCoord" : 0
                },
                "metallicFactor" : 0,
                "roughnessFactor" : 0
            }
        },
        {
            "doubleSided" : true,
            "name" : "Material.002",
            "pbrMetallicRoughness" : {
                "baseColorTexture" : {
                    "index" : 5,
                    "texCoord" : 0
                },
                "metallicFactor" : 0,
                "roughnessFactor" : 0
            }
        },
        {
            "doubleSided" : true,
            "name" : "Material.003",
            "pbrMetallicRoughness" : {
                "baseColorTexture" : {
                    "index" : 6,
                    "texCoord" : 0
                },
                "metallicFactor" : 0,
                "roughnessFactor" : 0
            }
        }
    ],
    "meshes" : [
        {
            "name" : "Cube",
            "primitives" : [
                {
                    "attributes" : {
                        "POSITION" : 0,
                        "NORMAL" : 1,
                        "TEXCOORD_0" : 2
                    },
                    "indices" : 3,
                    "material" : 0
                }
            ]
        },
        {
            "name" : "Plane.003",
            "primitives" : [
                {
                    "attributes" : {
                        "POSITION" : 4,
                        "NORMAL" : 5,
                        "TEXCOORD_0" : 6
                    },
                    "indices" : 7,
                    "material" : 1
                },
                {
                    "attributes" : {
                        "POSITION" : 8,
                        "NORMAL" : 9,
                        "TEXCOORD_0" : 10
                    },
                    "indices" : 7,
                    "material" : 2
                },
                {
                    "attributes" : {
                        "POSITION" : 11,
                        "NORMAL" : 12,
                        "TEXCOORD_0" : 13
                    },
                    "indices" : 14,
                    "material" : 3
                },
                {
                    "attributes" : {
                        "POSITION" : 15,
                        "NORMAL" : 16,
                        "TEXCOORD_0" : 17
                    },
                    "indices" : 7,
                    "material" : 4
                }
            ]
        }
    ],
    "textures" : [
        {
            "source" : 0
        },
        {
            "source" : 1
        },
        {
            "source" : 2
        },
        {
            "source" : 3
        },
        {
            "source" : 3
        },
        {
            "source" : 3
        },
        {
            "source" : 3
        }
    ],
    "images" : [
        {
            "bufferView" : 4,
            "mimeType" : "image/jpeg",
            "name" : "Material_Normal_OpenGL_1001"
        },
        {
            "bufferView" : 5,
            "mimeType" : "image/jpeg",
            "name" : "Material_Base_color_1001"
        },
        {
            "bufferView" : 6,
            "mimeType" : "image/jpeg",
            "name" : "Material_Roughness_1001"
        },
        {
            "bufferView" : 11,
            "mimeType" : "image/jpeg",
            "name" : "Unbenannt"
        }
    ],
    "accessors" : [
        {
            "bufferView" : 0,
            "componentType" : 5126,
            "count" : 104,
            "max" : [
                1.02290940284729,
                1,
                1.0229096412658691
            ],
            "min" : [
                -1.0229096412658691,
                -40.574928283691406,
                -1.0229096412658691
            ],
            "type" : "VEC3"
        },
        {
            "bufferView" : 1,
            "componentType" : 5126,
            "count" : 104,
            "type" : "VEC3"
        },
        {
            "bufferView" : 2,
            "componentType" : 5126,
            "count" : 104,
            "type" : "VEC2"
        },
        {
            "bufferView" : 3,
            "componentType" : 5123,
            "count" : 156,
            "type" : "SCALAR"
        },
        {
            "bufferView" : 7,
            "componentType" : 5126,
            "count" : 4,
            "max" : [
                1,
                0,
                1
            ],
            "min" : [
                -1,
                0,
                -1
            ],
            "type" : "VEC3"
        },
        {
            "bufferView" : 8,
            "componentType" : 5126,
            "count" : 4,
            "type" : "VEC3"
        },
        {
            "bufferView" : 9,
            "componentType" : 5126,
            "count" : 4,
            "type" : "VEC2"
        },
        {
            "bufferView" : 10,
            "componentType" : 5123,
            "count" : 6,
            "type" : "SCALAR"
        },
        {
            "bufferView" : 12,
            "componentType" : 5126,
            "count" : 4,
            "max" : [
                0.9526630640029907,
                0.003568410873413086,
                1.0038937330245972
            ],
            "min" : [
                -1.1744552850723267,
                0.003568410873413086,
                -1.0457714796066284
            ],
            "type" : "VEC3"
        },
        {
            "bufferView" : 13,
            "componentType" : 5126,
            "count" : 4,
            "type" : "VEC3"
        },
        {
            "bufferView" : 14,
            "componentType" : 5126,
            "count" : 4,
            "type" : "VEC2"
        },
        {
            "bufferView" : 15,
            "componentType" : 5126,
            "count" : 4,
            "max" : [
                1.0005489587783813,
                0.0008709430694580078,
                1.0219135284423828
            ],
            "min" : [
                -1.2223411798477173,
                0.0008709430694580078,
                -1.063791275024414
            ],
            "type" : "VEC3"
        },
        {
            "bufferView" : 16,
            "componentType" : 5126,
            "count" : 4,
            "type" : "VEC3"
        },
        {
            "bufferView" : 17,
            "componentType" : 5126,
            "count" : 4,
            "type" : "VEC2"
        },
        {
            "bufferView" : 18,
            "componentType" : 5123,
            "count" : 6,
            "type" : "SCALAR"
        },
        {
            "bufferView" : 19,
            "componentType" : 5126,
            "count" : 4,
            "max" : [
                1.0344620943069458,
                0.0004162788391113281,
                1.0342923402786255
            ],
            "min" : [
                -1.2562543153762817,
                0.0004162788391113281,
                -1.0761700868606567
            ],
            "type" : "VEC3"
        },
        {
            "bufferView" : 20,
            "componentType" : 5126,
            "count" : 4,
            "type" : "VEC3"
        },
        {
            "bufferView" : 21,
            "componentType" : 5126,
            "count" : 4,
            "type" : "VEC2"
        }
    ],
    "bufferViews" : [
        {
            "buffer" : 0,
            "byteLength" : 1248,
            "byteOffset" : 0
        },
        {
            "buffer" : 0,
            "byteLength" : 1248,
            "byteOffset" : 1248
        },
        {
            "buffer" : 0,
            "byteLength" : 832,
            "byteOffset" : 2496
        },
        {
            "buffer" : 0,
            "byteLength" : 312,
            "byteOffset" : 3328
        },
        {
            "buffer" : 0,
            "byteLength" : 154446,
            "byteOffset" : 3640
        },
        {
            "buffer" : 0,
            "byteLength" : 140660,
            "byteOffset" : 158088
        },
        {
            "buffer" : 0,
            "byteLength" : 128498,
            "byteOffset" : 298748
        },
        {
            "buffer" : 0,
            "byteLength" : 48,
            "byteOffset" : 427248
        },
        {
            "buffer" : 0,
            "byteLength" : 48,
            "byteOffset" : 427296
        },
        {
            "buffer" : 0,
            "byteLength" : 32,
            "byteOffset" : 427344
        },
        {
            "buffer" : 0,
            "byteLength" : 12,
            "byteOffset" : 427376
        },
        {
            "buffer" : 0,
            "byteLength" : 38540,
            "byteOffset" : 427388
        },
        {
            "buffer" : 0,
            "byteLength" : 48,
            "byteOffset" : 465928
        },
        {
            "buffer" : 0,
            "byteLength" : 48,
            "byteOffset" : 465976
        },
        {
            "buffer" : 0,
            "byteLength" : 32,
            "byteOffset" : 466024
        },
        {
            "buffer" : 0,
            "byteLength" : 48,
            "byteOffset" : 466056
        },
        {
            "buffer" : 0,
            "byteLength" : 48,
            "byteOffset" : 466104
        },
        {
            "buffer" : 0,
            "byteLength" : 32,
            "byteOffset" : 466152
        },
        {
            "buffer" : 0,
            "byteLength" : 12,
            "byteOffset" : 466184
        },
        {
            "buffer" : 0,
            "byteLength" : 48,
            "byteOffset" : 466196
        },
        {
            "buffer" : 0,
            "byteLength" : 48,
            "byteOffset" : 466244
        },
        {
            "buffer" : 0,
            "byteLength" : 32,
            "byteOffset" : 466292
        }
    ],
    "buffers" : [
        {
            "byteLength" : 466324,
            "uri" : "data:application/octet-stream;base64,"
        }
    ]
}
