{
    "asset" : {
        "generator" : "Khronos glTF Blender I/O v0.9.36",
        "version" : "2.0"
    },
    "scene" : 0,
    "scenes" : [
        {
            "name" : "Scene",
            "nodes" : [
                0
            ]
        }
    ],
    "nodes" : [
        {
            "mesh" : 0,
            "name" : "Cube",
            "scale" : [
                1.5,
                0.05000000074505806,
                3
            ],
            "translation" : [
                1.5,
                2.0189132690429688,
                0
            ]
        }
    ],
    "materials" : [
        {
            "doubleSided" : true,
            "name" : "asd123",
            "normalTexture" : {
                "index" : 0,
                "scale" : 0.20000000298023224,
                "texCoord" : 0
            },
            "pbrMetallicRoughness" : {
                "baseColorTexture" : {
                    "index" : 1,
                    "texCoord" : 0
                },
                "metallicFactor" : 0.33181819319725037,
                "metallicRoughnessTexture" : {
                    "index" : 2,
                    "texCoord" : 0
                }
            }
        },
        {
            "doubleSided" : true,
            "name" : "Material.004",
            "pbrMetallicRoughness" : {
                "baseColorTexture" : {
                    "index" : 3,
                    "texCoord" : 0
                },
                "metallicFactor" : 0,
                "roughnessFactor" : 0
            }
        },
        {
            "doubleSided" : true,
            "name" : "Material.001",
            "pbrMetallicRoughness" : {
                "baseColorTexture" : {
                    "index" : 4,
                    "texCoord" : 0
                },
                "metallicFactor" : 0,
                "roughnessFactor" : 0
            }
        },
        {
            "doubleSided" : true,
            "name" : "Material.002",
            "pbrMetallicRoughness" : {
                "baseColorTexture" : {
                    "index" : 5,
                    "texCoord" : 0
                },
                "metallicFactor" : 0,
                "roughnessFactor" : 0
            }
        },
        {
            "doubleSided" : true,
            "name" : "Material.003",
            "pbrMetallicRoughness" : {
                "baseColorTexture" : {
                    "index" : 6,
                    "texCoord" : 0
                },
                "metallicFactor" : 0,
                "roughnessFactor" : 0
            }
        },
        {
            "doubleSided" : true,
            "name" : "carpet",
            "pbrMetallicRoughness" : {
                "baseColorTexture" : {
                    "index" : 7,
                    "texCoord" : 0
                },
                "metallicFactor" : 0,
                "roughnessFactor" : 1
            }
        }
    ],
    "meshes" : [
        {
            "name" : "Cube",
            "primitives" : [
                {
                    "attributes" : {
                        "POSITION" : 0,
                        "NORMAL" : 1,
                        "TEXCOORD_0" : 2
                    },
                    "indices" : 3,
                    "material" : 0
                },
                {
                    "attributes" : {
                        "POSITION" : 4,
                        "NORMAL" : 5,
                        "TEXCOORD_0" : 6
                    },
                    "indices" : 7,
                    "material" : 1
                },
                {
                    "attributes" : {
                        "POSITION" : 8,
                        "NORMAL" : 9,
                        "TEXCOORD_0" : 10
                    },
                    "indices" : 11,
                    "material" : 2
                },
                {
                    "attributes" : {
                        "POSITION" : 12,
                        "NORMAL" : 13,
                        "TEXCOORD_0" : 14
                    },
                    "indices" : 7,
                    "material" : 3
                },
                {
                    "attributes" : {
                        "POSITION" : 15,
                        "NORMAL" : 16,
                        "TEXCOORD_0" : 17
                    },
                    "indices" : 11,
                    "material" : 4
                },
                {
                    "attributes" : {
                        "POSITION" : 18,
                        "NORMAL" : 19,
                        "TEXCOORD_0" : 20
                    },
                    "indices" : 21,
                    "material" : 5
                }
            ]
        }
    ],
    "textures" : [
        {
            "source" : 0
        },
        {
            "source" : 1
        },
        {
            "source" : 2
        },
        {
            "source" : 3
        },
        {
            "source" : 3
        },
        {
            "source" : 3
        },
        {
            "source" : 3
        },
        {
            "source" : 4
        }
    ],
    "images" : [
        {
            "bufferView" : 4,
            "mimeType" : "image/jpeg",
            "name" : "Material_Normal_OpenGL_1001"
        },
        {
            "bufferView" : 5,
            "mimeType" : "image/jpeg",
            "name" : "Material_Base_color_1001"
        },
        {
            "bufferView" : 6,
            "mimeType" : "image/jpeg",
            "name" : "Material_Roughness_1001"
        },
        {
            "bufferView" : 11,
            "mimeType" : "image/jpeg",
            "name" : "Unbenannt"
        },
        {
            "bufferView" : 26,
            "mimeType" : "image/jpeg",
            "name" : "carpetalpha"
        }
    ],
    "accessors" : [
        {
            "bufferView" : 0,
            "componentType" : 5126,
            "count" : 104,
            "max" : [
                1.02290940284729,
                1,
                1.0229096412658691
            ],
            "min" : [
                -1.0229096412658691,
                -40.574928283691406,
                -1.0229096412658691
            ],
            "type" : "VEC3"
        },
        {
            "bufferView" : 1,
            "componentType" : 5126,
            "count" : 104,
            "type" : "VEC3"
        },
        {
            "bufferView" : 2,
            "componentType" : 5126,
            "count" : 104,
            "type" : "VEC2"
        },
        {
            "bufferView" : 3,
            "componentType" : 5123,
            "count" : 156,
            "type" : "SCALAR"
        },
        {
            "bufferView" : 7,
            "componentType" : 5126,
            "count" : 4,
            "max" : [
                0.5331999063491821,
                1.0321502685546875,
                0.8246974945068359
            ],
            "min" : [
                -0.29768839478492737,
                1.0321502685546875,
                0.511059045791626
            ],
            "type" : "VEC3"
        },
        {
            "bufferView" : 8,
            "componentType" : 5126,
            "count" : 4,
            "type" : "VEC3"
        },
        {
            "bufferView" : 9,
            "componentType" : 5126,
            "count" : 4,
            "type" : "VEC2"
        },
        {
            "bufferView" : 10,
            "componentType" : 5123,
            "count" : 6,
            "type" : "SCALAR"
        },
        {
            "bufferView" : 12,
            "componentType" : 5126,
            "count" : 4,
            "max" : [
                0.5291756391525269,
                1.1035184860229492,
                0.847681999206543
            ],
            "min" : [
                -0.31024810671806335,
                1.1035184860229492,
                0.5224859118461609
            ],
            "type" : "VEC3"
        },
        {
            "bufferView" : 13,
            "componentType" : 5126,
            "count" : 4,
            "type" : "VEC3"
        },
        {
            "bufferView" : 14,
            "componentType" : 5126,
            "count" : 4,
            "type" : "VEC2"
        },
        {
            "bufferView" : 15,
            "componentType" : 5123,
            "count" : 6,
            "type" : "SCALAR"
        },
        {
            "bufferView" : 16,
            "componentType" : 5126,
            "count" : 4,
            "max" : [
                0.5422184467315674,
                1.0495691299438477,
                0.8590519428253174
            ],
            "min" : [
                -0.3232908844947815,
                1.0495691299438477,
                0.5111159682273865
            ],
            "type" : "VEC3"
        },
        {
            "bufferView" : 17,
            "componentType" : 5126,
            "count" : 4,
            "type" : "VEC3"
        },
        {
            "bufferView" : 18,
            "componentType" : 5126,
            "count" : 4,
            "type" : "VEC2"
        },
        {
            "bufferView" : 19,
            "componentType" : 5126,
            "count" : 4,
            "max" : [
                0.541985809803009,
                1.040475845336914,
                0.8604190349578857
            ],
            "min" : [
                -0.32305824756622314,
                1.040475845336914,
                0.5097488760948181
            ],
            "type" : "VEC3"
        },
        {
            "bufferView" : 20,
            "componentType" : 5126,
            "count" : 4,
            "type" : "VEC3"
        },
        {
            "bufferView" : 21,
            "componentType" : 5126,
            "count" : 4,
            "type" : "VEC2"
        },
        {
            "bufferView" : 22,
            "componentType" : 5126,
            "count" : 48,
            "max" : [
                4.465126037597656,
                -40.37826156616211,
                2.6061019897460938
            ],
            "min" : [
                -3.0417702198028564,
                -40.37826156616211,
                -2.8369717597961426
            ],
            "type" : "VEC3"
        },
        {
            "bufferView" : 23,
            "componentType" : 5126,
            "count" : 48,
            "type" : "VEC3"
        },
        {
            "bufferView" : 24,
            "componentType" : 5126,
            "count" : 48,
            "type" : "VEC2"
        },
        {
            "bufferView" : 25,
            "componentType" : 5123,
            "count" : 72,
            "type" : "SCALAR"
        }
    ],
    "bufferViews" : [
        {
            "buffer" : 0,
            "byteLength" : 1248,
            "byteOffset" : 0
        },
        {
            "buffer" : 0,
            "byteLength" : 1248,
            "byteOffset" : 1248
        },
        {
            "buffer" : 0,
            "byteLength" : 832,
            "byteOffset" : 2496
        },
        {
            "buffer" : 0,
            "byteLength" : 312,
            "byteOffset" : 3328
        },
        {
            "buffer" : 0,
            "byteLength" : 154446,
            "byteOffset" : 3640
        },
        {
            "buffer" : 0,
            "byteLength" : 140660,
            "byteOffset" : 158088
        },
        {
            "buffer" : 0,
            "byteLength" : 128498,
            "byteOffset" : 298748
        },
        {
            "buffer" : 0,
            "byteLength" : 48,
            "byteOffset" : 427248
        },
        {
            "buffer" : 0,
            "byteLength" : 48,
            "byteOffset" : 427296
        },
        {
            "buffer" : 0,
            "byteLength" : 32,
            "byteOffset" : 427344
        },
        {
            "buffer" : 0,
            "byteLength" : 12,
            "byteOffset" : 427376
        },
        {
            "buffer" : 0,
            "byteLength" : 683168,
            "byteOffset" : 427388
        },
        {
            "buffer" : 0,
            "byteLength" : 48,
            "byteOffset" : 1110556
        },
        {
            "buffer" : 0,
            "byteLength" : 48,
            "byteOffset" : 1110604
        },
        {
            "buffer" : 0,
            "byteLength" : 32,
            "byteOffset" : 1110652
        },
        {
            "buffer" : 0,
            "byteLength" : 12,
            "byteOffset" : 1110684
        },
        {
            "buffer" : 0,
            "byteLength" : 48,
            "byteOffset" : 1110696
        },
        {
            "buffer" : 0,
            "byteLength" : 48,
            "byteOffset" : 1110744
        },
        {
            "buffer" : 0,
            "byteLength" : 32,
            "byteOffset" : 1110792
        },
        {
            "buffer" : 0,
            "byteLength" : 48,
            "byteOffset" : 1110824
        },
        {
            "buffer" : 0,
            "byteLength" : 48,
            "byteOffset" : 1110872
        },
        {
            "buffer" : 0,
            "byteLength" : 32,
            "byteOffset" : 1110920
        },
        {
            "buffer" : 0,
            "byteLength" : 576,
            "byteOffset" : 1110952
        },
        {
            "buffer" : 0,
            "byteLength" : 576,
            "byteOffset" : 1111528
        },
        {
            "buffer" : 0,
            "byteLength" : 384,
            "byteOffset" : 1112104
        },
        {
            "buffer" : 0,
            "byteLength" : 144,
            "byteOffset" : 1112488
        },
        {
            "buffer" : 0,
            "byteLength" : 461115,
            "byteOffset" : 1112632
        }
    ],
    "buffers" : [
        {
            "byteLength" : 1573748,
            "uri" : "data:application/octet-stream;base64,"
        }
    ]
}
